<svg width="48" height="48" viewBox="0 0 48 48" fill="none" xmlns="http://www.w3.org/2000/svg">
<path d="M45.5625 0.5625H2.4375C1.40039 0.5625 0.5625 1.40039 0.5625 2.4375V45.5625C0.5625 46.5996 1.40039 47.4375 2.4375 47.4375H45.5625C46.5996 47.4375 47.4375 46.5996 47.4375 45.5625V2.4375C47.4375 1.40039 46.5996 0.5625 45.5625 0.5625ZM40.1484 14.2441H36.4043C33.4688 14.2441 32.9004 15.6387 32.9004 17.6895V22.207H39.9082L38.9941 29.2793H32.9004V47.4375H25.5938V29.2852H19.4824V22.207H25.5938V16.9922C25.5938 10.9395 29.291 7.64062 34.6934 7.64062C37.2832 7.64062 39.5039 7.83398 40.1543 7.92188V14.2441H40.1484Z" fill="black"/>
</svg>
