<svg width="55" height="55" viewBox="0 0 55 55" fill="none" xmlns="http://www.w3.org/2000/svg">
<path fill-rule="evenodd" clip-rule="evenodd" d="M16.1625 0.165C19.095 0.03 20.03 0 27.5 0C34.97 0 35.905 0.0325 38.835 0.165C41.765 0.2975 43.765 0.765 45.515 1.4425C47.3475 2.135 49.01 3.2175 50.385 4.6175C51.785 5.99 52.865 7.65 53.555 9.485C54.235 11.235 54.7 13.235 54.835 16.16C54.97 19.0975 55 20.0325 55 27.5C55 34.97 54.9675 35.905 54.835 38.8375C54.7025 41.7625 54.235 43.7625 53.555 45.5125C52.865 47.3477 51.7832 49.0105 50.385 50.385C49.01 51.785 47.3475 52.865 45.515 53.555C43.765 54.235 41.765 54.7 38.84 54.835C35.905 54.97 34.97 55 27.5 55C20.03 55 19.095 54.9675 16.1625 54.835C13.2375 54.7025 11.2375 54.235 9.4875 53.555C7.6523 52.8649 5.98955 51.7831 4.615 50.385C3.21595 49.0117 2.13329 47.3497 1.4425 45.515C0.765 43.765 0.3 41.765 0.165 38.84C0.03 35.9025 0 34.9675 0 27.5C0 20.03 0.0325 19.095 0.165 16.165C0.2975 13.235 0.765 11.235 1.4425 9.485C2.13431 7.6502 3.2178 5.98828 4.6175 4.615C5.9901 3.21625 7.65118 2.13361 9.485 1.4425C11.235 0.765 13.235 0.3 16.16 0.165H16.1625ZM38.6125 5.115C35.7125 4.9825 34.8425 4.955 27.5 4.955C20.1575 4.955 19.2875 4.9825 16.3875 5.115C13.705 5.2375 12.25 5.685 11.28 6.0625C9.9975 6.5625 9.08 7.155 8.1175 8.1175C7.20511 9.00513 6.50295 10.0857 6.0625 11.28C5.685 12.25 5.2375 13.705 5.115 16.3875C4.9825 19.2875 4.955 20.1575 4.955 27.5C4.955 34.8425 4.9825 35.7125 5.115 38.6125C5.2375 41.295 5.685 42.75 6.0625 43.72C6.5025 44.9125 7.205 45.995 8.1175 46.8825C9.005 47.795 10.0875 48.4975 11.28 48.9375C12.25 49.315 13.705 49.7625 16.3875 49.885C19.2875 50.0175 20.155 50.045 27.5 50.045C34.845 50.045 35.7125 50.0175 38.6125 49.885C41.295 49.7625 42.75 49.315 43.72 48.9375C45.0025 48.4375 45.92 47.845 46.8825 46.8825C47.795 45.995 48.4975 44.9125 48.9375 43.72C49.315 42.75 49.7625 41.295 49.885 38.6125C50.0175 35.7125 50.045 34.8425 50.045 27.5C50.045 20.1575 50.0175 19.2875 49.885 16.3875C49.7625 13.705 49.315 12.25 48.9375 11.28C48.4375 9.9975 47.845 9.08 46.8825 8.1175C45.9948 7.20518 44.9143 6.50303 43.72 6.0625C42.75 5.685 41.295 5.2375 38.6125 5.115ZM23.9875 35.9775C25.9491 36.7941 28.1334 36.9043 30.1673 36.2893C32.2012 35.6743 33.9585 34.3723 35.139 32.6056C36.3196 30.8389 36.8501 28.7172 36.6401 26.6028C36.4301 24.4883 35.4925 22.5124 33.9875 21.0125C33.0281 20.0537 31.868 19.3195 30.5908 18.8629C29.3136 18.4062 27.9511 18.2384 26.6012 18.3715C25.2514 18.5047 23.9479 18.9354 22.7845 19.6328C21.6211 20.3302 20.6269 21.2769 19.8733 22.4046C19.1197 23.5324 18.6255 24.8132 18.4263 26.1549C18.2271 27.4966 18.3279 28.8657 18.7213 30.1638C19.1148 31.4619 19.7912 32.6565 20.7018 33.6618C21.6124 34.6671 22.7346 35.458 23.9875 35.9775ZM17.505 17.505C18.8176 16.1924 20.3758 15.1513 22.0907 14.4409C23.8057 13.7305 25.6438 13.3649 27.5 13.3649C29.3562 13.3649 31.1943 13.7305 32.9093 14.4409C34.6242 15.1513 36.1824 16.1924 37.495 17.505C38.8076 18.8176 39.8487 20.3758 40.5591 22.0907C41.2695 23.8057 41.6351 25.6438 41.6351 27.5C41.6351 29.3562 41.2695 31.1943 40.5591 32.9093C39.8487 34.6242 38.8076 36.1824 37.495 37.495C34.8442 40.1458 31.2489 41.6351 27.5 41.6351C23.7511 41.6351 20.1558 40.1458 17.505 37.495C14.8542 34.8442 13.3649 31.2489 13.3649 27.5C13.3649 23.7511 14.8542 20.1558 17.505 17.505ZM44.77 15.47C45.0953 15.1632 45.3557 14.7942 45.5358 14.3849C45.7159 13.9757 45.812 13.5344 45.8185 13.0873C45.8251 12.6402 45.7418 12.1964 45.5737 11.782C45.4056 11.3677 45.1561 10.9913 44.8399 10.6751C44.5237 10.3589 44.1473 10.1094 43.733 9.94129C43.3186 9.7732 42.8748 9.68994 42.4277 9.69646C41.9806 9.70298 41.5393 9.79914 41.1301 9.97924C40.7208 10.1593 40.3518 10.4197 40.045 10.745C39.4483 11.3776 39.1216 12.2178 39.1343 13.0873C39.1469 13.9568 39.498 14.7872 40.1129 15.4021C40.7278 16.017 41.5582 16.3681 42.4277 16.3807C43.2972 16.3934 44.1374 16.0667 44.77 15.47Z" fill="black"/>
</svg>
