<svg width="57" height="47" viewBox="0 0 57 47" fill="none" xmlns="http://www.w3.org/2000/svg">
<path d="M56.765 5.4738C54.6775 6.3988 52.435 7.0238 50.0775 7.3063C52.51 5.85078 54.3299 3.55996 55.1975 0.861296C52.9121 2.21877 50.4109 3.17428 47.8025 3.6863C46.0485 1.81346 43.7252 0.572111 41.1933 0.154981C38.6615 -0.262149 36.0627 0.168275 33.8006 1.37943C31.5384 2.59058 29.7394 4.5147 28.6829 6.85306C27.6263 9.19141 27.3713 11.8132 27.9575 14.3113C23.3267 14.0788 18.7966 12.8752 14.6611 10.7786C10.5256 8.68195 6.8771 5.7392 3.9525 2.1413C2.9525 3.8663 2.3775 5.8663 2.3775 7.9963C2.37638 9.91378 2.84858 11.8019 3.7522 13.4931C4.65581 15.1844 5.9629 16.6264 7.5575 17.6913C5.70819 17.6325 3.89968 17.1328 2.2825 16.2338V16.3838C2.28231 19.0731 3.21258 21.6797 4.91546 23.7613C6.61833 25.8428 8.98893 27.2711 11.625 27.8038C9.90946 28.2681 8.11084 28.3365 6.365 28.0038C7.10874 30.3178 8.55749 32.3414 10.5084 33.7911C12.4593 35.2409 14.8148 36.0442 17.245 36.0888C13.1196 39.3273 8.02472 41.084 2.78 41.0763C1.85095 41.0765 0.922691 41.0223 0 40.9138C5.32369 44.3367 11.5209 46.1533 17.85 46.1463C39.275 46.1463 50.9875 28.4013 50.9875 13.0113C50.9875 12.5113 50.975 12.0063 50.9525 11.5063C53.2307 9.85873 55.1973 7.81854 56.76 5.4813L56.765 5.4738Z" fill="black"/>
</svg>
